<mxfile host="Electron" modified="2024-10-13T01:13:24.104Z" agent="Mozilla/5.0 (Windows NT 10.0; Win64; x64) AppleWebKit/537.36 (KHTML, like Gecko) draw.io/24.4.0 Chrome/120.0.6099.109 Electron/28.1.0 Safari/537.36" etag="F4NvqwZaXip7P9QS9rjG" version="24.4.0" type="device">
  <diagram name="PÃ¡gina-1" id="2HGGTUAqICC16lrhysVB">
    <mxGraphModel dx="1550" dy="759" grid="0" gridSize="10" guides="1" tooltips="1" connect="1" arrows="1" fold="1" page="0" pageScale="1" pageWidth="850" pageHeight="1100" math="0" shadow="0">
      <root>
        <mxCell id="0" />
        <mxCell id="1" parent="0" />
      </root>
    </mxGraphModel>
  </diagram>
</mxfile>
